<svg xmlns="http://www.w3.org/2000/svg" xml:space="preserve" width="832" height="832" fill="none" viewBox="0 0 832 832"><g style="clip-rule:evenodd;fill:#202438;fill-opacity:1;fill-rule:evenodd;stroke-linejoin:round;stroke-miterlimit:1.41"><path d="M460 316.1c0 5.5 0 10.99-.04 16.48-.03 4.63-.08 9.26-.2 13.88a202 202 0 0 1-2.66 30.21c-1.71 10-4.9 19.68-9.47 28.73a96.6 96.6 0 0 1-42.23 42.23 101.9 101.9 0 0 1-28.71 9.46c-10 1.65-20.1 2.54-30.22 2.66a649 649 0 0 1-13.88.21c-5.5.03-10.99.03-16.48.03H143.89c-5.49 0-10.98 0-16.48-.03a649 649 0 0 1-13.88-.2 201.5 201.5 0 0 1-30.22-2.67c-9.99-1.7-19.67-4.9-28.71-9.46a96.6 96.6 0 0 1-42.23-42.22 102 102 0 0 1-9.47-28.74 201.6 201.6 0 0 1-2.66-30.2c-.12-4.63-.18-9.26-.2-13.89C0 327.08 0 321.6 0 316.1V143.9c0-5.5 0-11 .04-16.5.02-4.62.08-9.25.2-13.87a201.6 201.6 0 0 1 2.66-30.2c1.71-10 4.9-19.68 9.47-28.74A96.6 96.6 0 0 1 54.6 12.36 102 102 0 0 1 83.3 2.9c10-1.64 20.1-2.53 30.22-2.66 4.63-.12 9.26-.18 13.88-.2 5.5-.03 11-.03 16.48-.03H316.1c5.5 0 11 0 16.49.03a649 649 0 0 1 13.88.2c10.12.13 20.22 1.02 30.21 2.66 10 1.71 19.67 4.9 28.72 9.46a96.58 96.58 0 0 1 42.24 42.23 102 102 0 0 1 9.46 28.73 202 202 0 0 1 2.66 30.21c.12 4.63.18 9.26.2 13.88.04 5.5.04 10.99.04 16.48z" style="fill:#202438;fill-opacity:1" transform="matrix(1.8087 0 0 1.8087 0 -.018)"/></g><g filter="url(#a)" mask="url(#b)"><path fill="url(#c)" d="M200.903 653.538c0 16.227 0 24.34 4.887 32.633 3.574 6.063 12.367 13.221 19.03 15.49 9.112 3.103 15.255 1.83 27.54-.716 22.778-4.721 50.563-14.07 77.893-32.349 50.005-33.447 63.767-65.985 67.354-78.27.967-3.314-1.452 4.97-.609 1.069.187-.863 1.645-9.613 1.749-10.49.468-3.963.23 1.189.325-.872 1.692-36.483 7.648-252.57-92.857-189.022-19.375 12.252-36.075 20.954-50.1 27.134-26.974 11.885-40.461 17.827-44.743 21.912-5.376 5.127-5.934 5.982-8.458 12.969-2.011 5.565-2.011 16.303-2.011 37.777z" style="fill:url(#c)"/><path fill="url(#d)" fill-opacity="0.2" d="M200.903 653.538c0 16.227 0 24.34 4.887 32.633 3.574 6.063 12.367 13.221 19.03 15.49 9.112 3.103 15.255 1.83 27.54-.716 22.778-4.721 50.563-14.07 77.893-32.349 50.005-33.447 63.767-65.985 67.354-78.27.967-3.314-1.452 4.97-.609 1.069.187-.863 1.645-9.613 1.749-10.49.468-3.963.23 1.189.325-.872 1.692-36.483 7.648-252.57-92.857-189.022-19.375 12.252-36.075 20.954-50.1 27.134-26.974 11.885-40.461 17.827-44.743 21.912-5.376 5.127-5.934 5.982-8.458 12.969-2.011 5.565-2.011 16.303-2.011 37.777z" style="fill:url(#d)"/></g><g filter="url(#f)" mask="url(#e)"><path fill="url(#g)" fill-opacity="0.01" d="M130.052 189.379c0-25.105 0-37.658 6.551-47.856 5.222-8.13 15.6-15.527 24.989-17.811 11.778-2.864 22.425.811 43.719 8.161 23.532 8.122 51.045 19.102 80.244 33.702 84.873 42.436 113.244 89.693 113.244 149.593v234.653s-29.886-70.096-123.851-114.51c-36.356-17.184-66.269-27.387-89.284-33.438-24.625-6.475-36.938-9.713-42.304-13.802-5.836-4.448-7.9-7.125-10.718-13.9-2.59-6.229-2.59-16.662-2.59-37.528z" shape-rendering="crispEdges" style="fill:url(#g)"/></g><g filter="url(#h)" mask="url(#i)"><path fill="url(#j)" d="M130.263 189.379c0-25.105 0-37.658 6.55-47.856 5.222-8.13 15.6-15.527 24.989-17.811 11.778-2.864 22.425.811 43.72 8.161 23.531 8.122 51.044 19.102 80.244 33.702 84.872 42.436 113.244 89.693 113.244 149.593v234.653s-29.887-70.096-123.851-114.51c-36.356-17.184-66.27-27.387-89.284-33.438-24.626-6.475-36.939-9.713-42.304-13.802-5.836-4.448-7.901-7.125-10.718-13.9-2.59-6.229-2.59-16.662-2.59-37.528z" style="fill:url(#j)"/></g><g filter="url(#k)" mask="url(#l)"><path fill="url(#m)" d="M631.659 653.538c0 16.227 0 24.34-4.887 32.633-3.574 6.063-12.368 13.221-19.03 15.49-9.112 3.103-15.255 1.83-27.54-.716-22.778-4.721-50.563-14.07-77.893-32.349-63.446-42.437-68.547-60.642-68.547-129.116 0-268.975-17.064-217.799 92.585-148.469 19.375 12.252 36.075 20.954 50.1 27.134 26.974 11.885 40.461 17.827 44.743 21.912 5.376 5.127 5.934 5.982 8.458 12.969 2.011 5.565 2.011 16.303 2.011 37.777z" style="fill:url(#m)"/><path fill="url(#n)" d="M631.659 653.538c0 16.227 0 24.34-4.887 32.633-3.574 6.063-12.368 13.221-19.03 15.49-9.112 3.103-15.255 1.83-27.54-.716-22.778-4.721-50.563-14.07-77.893-32.349-63.446-42.437-68.547-60.642-68.547-129.116 0-268.975-17.064-217.799 92.585-148.469 19.375 12.252 36.075 20.954 50.1 27.134 26.974 11.885 40.461 17.827 44.743 21.912 5.376 5.127 5.934 5.982 8.458 12.969 2.011 5.565 2.011 16.303 2.011 37.777z" style="fill:url(#n)"/></g><g filter="url(#p)" mask="url(#o)"><path fill="url(#q)" d="M702.51 189.379c0-25.105 0-37.658-6.551-47.856-5.222-8.13-15.6-15.527-24.989-17.811-11.778-2.864-22.425.811-43.719 8.161-23.532 8.122-51.045 19.102-80.244 33.702-84.873 42.436-113.245 89.693-113.245 149.593v234.653s29.887-70.096 123.852-114.51c36.356-17.184 66.269-27.387 89.284-33.438 24.625-6.475 36.938-9.713 42.304-13.802 5.835-4.448 7.9-7.125 10.718-13.9 2.59-6.229 2.59-16.662 2.59-37.528z" style="fill:url(#q)"/></g><g filter="url(#r)" mask="url(#s)"><path fill="url(#t)" d="M702.51 189.379c0-25.105 0-37.658-6.551-47.856-5.222-8.13-15.6-15.527-24.989-17.811-11.778-2.864-22.425.811-43.719 8.161-23.532 8.122-51.045 19.102-80.244 33.702-84.873 42.436-113.245 89.693-113.245 149.593v234.653s29.887-70.096 123.852-114.51c36.356-17.184 66.269-27.387 89.284-33.438 24.625-6.475 36.938-9.713 42.304-13.802 5.835-4.448 7.9-7.125 10.718-13.9 2.59-6.229 2.59-16.662 2.59-37.528z" style="fill:url(#t)"/></g><defs><linearGradient id="c" x1="196.777" x2="398.238" y1="584.403" y2="584.403" gradientUnits="userSpaceOnUse"><stop stop-color="#8C9DF0"/><stop offset="1" stop-color="#6673AD"/></linearGradient><linearGradient id="g" x1="128.55" x2="398.049" y1="241.919" y2="241.919" gradientUnits="userSpaceOnUse"><stop stop-color="#EE9A94"/><stop offset="1" stop-color="#F5E2D6"/></linearGradient><linearGradient id="j" x1="128.761" x2="398.259" y1="241.919" y2="241.919" gradientUnits="userSpaceOnUse"><stop stop-color="#7271AA"/><stop offset="1" stop-color="#B07694"/></linearGradient><linearGradient id="m" x1="635.785" x2="434.324" y1="584.403" y2="584.403" gradientUnits="userSpaceOnUse"><stop stop-color="#EC7064"/><stop offset="1" stop-color="#A24C52"/></linearGradient><linearGradient id="q" x1="704.012" x2="434.513" y1="241.919" y2="241.919" gradientUnits="userSpaceOnUse"><stop stop-color="#EE9A94"/><stop offset="1" stop-color="#F5E2D6"/></linearGradient><linearGradient id="t" x1="704.012" x2="434.513" y1="241.919" y2="241.919" gradientUnits="userSpaceOnUse"><stop stop-color="#EE9A94"/><stop offset="1" stop-color="#F5E2D6"/></linearGradient><filter id="a" width="199.858" height="325.095" x="199.903" y="378.389" color-interpolation-filters="sRGB" filterUnits="userSpaceOnUse"><feFlood flood-opacity="0" result="BackgroundImageFix"/><feBlend in="SourceGraphic" in2="BackgroundImageFix" result="shape"/><feColorMatrix in="SourceAlpha" result="hardAlpha" values="0 0 0 0 0 0 0 0 0 0 0 0 0 0 0 0 0 0 127 0"/><feOffset dx="-1" dy="-1"/><feGaussianBlur stdDeviation="2.5"/><feComposite in2="hardAlpha" k2="-1" k3="1" operator="arithmetic"/><feColorMatrix values="0 0 0 0 1 0 0 0 0 1 0 0 0 0 1 0 0 0 0.2 0"/><feBlend in2="shape" result="effect1_innerShadow_102_70"/></filter><filter id="f" width="439.955" height="598.29" x="29.4301" y="77.6842" color-interpolation-filters="sRGB" filterUnits="userSpaceOnUse"><feFlood flood-opacity="0" result="BackgroundImageFix"/><feColorMatrix in="SourceAlpha" result="hardAlpha" values="0 0 0 0 0 0 0 0 0 0 0 0 0 0 0 0 0 0 127 0"/><feOffset dx="-15.0182" dy="40.5491"/><feGaussianBlur stdDeviation="42.8019"/><feComposite in2="hardAlpha" operator="out"/><feColorMatrix values="0 0 0 0 0 0 0 0 0 0 0 0 0 0 0 0 0 0 0.3 0"/><feBlend in2="BackgroundImageFix" result="effect1_dropShadow_102_70"/><feBlend in="SourceGraphic" in2="effect1_dropShadow_102_70" result="shape"/></filter><filter id="h" width="270.747" height="428.082" x="130.263" y="122.739" color-interpolation-filters="sRGB" filterUnits="userSpaceOnUse"><feFlood flood-opacity="0" result="BackgroundImageFix"/><feBlend in="SourceGraphic" in2="BackgroundImageFix" result="shape"/><feColorMatrix in="SourceAlpha" result="hardAlpha" values="0 0 0 0 0 0 0 0 0 0 0 0 0 0 0 0 0 0 127 0"/><feOffset dx="2" dy="1"/><feGaussianBlur stdDeviation="2.5"/><feComposite in2="hardAlpha" k2="-1" k3="1" operator="arithmetic"/><feColorMatrix values="0 0 0 0 1 0 0 0 0 1 0 0 0 0 1 0 0 0 0.2 0"/><feBlend in2="shape" result="effect1_innerShadow_102_70"/></filter><filter id="k" width="199.858" height="368.852" x="431.801" y="334.633" color-interpolation-filters="sRGB" filterUnits="userSpaceOnUse"><feFlood flood-opacity="0" result="BackgroundImageFix"/><feBlend in="SourceGraphic" in2="BackgroundImageFix" result="shape"/><feColorMatrix in="SourceAlpha" result="hardAlpha" values="0 0 0 0 0 0 0 0 0 0 0 0 0 0 0 0 0 0 127 0"/><feOffset dx="-1" dy="-1"/><feGaussianBlur stdDeviation="2.5"/><feComposite in2="hardAlpha" k2="-1" k3="1" operator="arithmetic"/><feColorMatrix values="0 0 0 0 1 0 0 0 0 1 0 0 0 0 1 0 0 0 0.25 0"/><feBlend in2="shape" result="effect1_innerShadow_102_70"/></filter><filter id="p" width="439.955" height="598.29" x="333.141" y="77.6842" color-interpolation-filters="sRGB" filterUnits="userSpaceOnUse"><feFlood flood-opacity="0" result="BackgroundImageFix"/><feColorMatrix in="SourceAlpha" result="hardAlpha" values="0 0 0 0 0 0 0 0 0 0 0 0 0 0 0 0 0 0 127 0"/><feOffset dx="-15.0182" dy="40.5491"/><feGaussianBlur stdDeviation="42.8019"/><feComposite in2="hardAlpha" operator="out"/><feColorMatrix values="0 0 0 0 0 0 0 0 0 0 0 0 0 0 0 0 0 0 0.3 0"/><feBlend in2="BackgroundImageFix" result="effect1_dropShadow_102_70"/><feBlend in="SourceGraphic" in2="effect1_dropShadow_102_70" result="shape"/></filter><filter id="r" width="269.747" height="428.082" x="432.762" y="121.739" color-interpolation-filters="sRGB" filterUnits="userSpaceOnUse"><feFlood flood-opacity="0" result="BackgroundImageFix"/><feBlend in="SourceGraphic" in2="BackgroundImageFix" result="shape"/><feColorMatrix in="SourceAlpha" result="hardAlpha" values="0 0 0 0 0 0 0 0 0 0 0 0 0 0 0 0 0 0 127 0"/><feOffset dx="-1" dy="-1"/><feGaussianBlur stdDeviation="2.5"/><feComposite in2="hardAlpha" k2="-1" k3="1" operator="arithmetic"/><feColorMatrix values="0 0 0 0 1 0 0 0 0 1 0 0 0 0 1 0 0 0 0.45 0"/><feBlend in2="shape" result="effect1_innerShadow_102_70"/></filter><mask id="s" maskUnits="userSpaceOnUse"><path fill="#fff" fill-rule="evenodd" d="M828 256.627c0-9.782.004-19.565-.056-29.348-.049-8.241-.144-16.48-.368-24.717-.484-17.953-1.543-36.06-4.736-53.813-3.238-18.008-8.526-34.769-16.859-51.132a172.079 172.079 0 0 0-75.235-75.199c-16.38-8.335-33.159-13.621-51.188-16.858-17.755-3.188-35.867-4.245-53.82-4.73-8.243-.223-16.485-.317-24.73-.368-9.788-.06-19.576-.055-29.364-.055L457.997 0h-85L261.361.407c-9.807 0-19.614-.005-29.421.055-8.262.051-16.52.145-24.779.368-17.994.485-36.147 1.543-53.944 4.735-18.053 3.236-34.857 8.52-51.259 16.849a172.4 172.4 0 0 0-43.667 31.644A172 172 0 0 0 26.573 97.61c-8.356 16.371-13.654 33.142-16.9 51.16-3.196 17.746-4.255 35.847-4.742 53.792-.222 8.238-.318 16.477-.368 24.717-.06 9.784-.563 21.937-.563 31.72l.003 110.09L4 454.998l.508 112.429c0 9.796-.004 19.592.055 29.388.05 8.252.146 16.502.369 24.751.486 17.976 1.547 36.109 4.746 53.886 3.245 18.032 8.542 34.817 16.89 51.201a172.2 172.2 0 0 0 31.723 43.619 172.4 172.4 0 0 0 43.659 31.684c16.412 8.346 33.224 13.639 51.288 16.88 17.789 3.193 35.936 4.252 53.923 4.737 8.259.223 16.518.318 24.78.368 9.807.06 19.613.056 29.42.056l112.645.003h85.211l112.427-.004c9.788 0 19.576.005 29.364-.055 8.245-.05 16.487-.145 24.73-.368 17.96-.486 36.078-1.546 53.841-4.741 18.018-3.241 34.789-8.532 51.16-16.873a172.202 172.202 0 0 0 75.239-75.299c8.338-16.392 13.626-33.185 16.866-51.229 3.19-17.77 4.248-35.896 4.733-53.865.223-8.25.318-16.5.367-24.751.061-9.796.056-19.592.056-29.388l-.006-112.429v-85.999z" clip-rule="evenodd"/></mask><mask id="o" maskUnits="userSpaceOnUse"><path fill="#fff" fill-rule="evenodd" d="M828 256.627c0-9.782.004-19.565-.056-29.348-.049-8.241-.144-16.48-.368-24.717-.484-17.953-1.543-36.06-4.736-53.813-3.238-18.008-8.526-34.769-16.859-51.132a172.079 172.079 0 0 0-75.235-75.199c-16.38-8.335-33.159-13.621-51.188-16.858-17.755-3.188-35.867-4.245-53.82-4.73-8.243-.223-16.485-.317-24.73-.368-9.788-.06-19.576-.055-29.364-.055L457.997 0h-85L261.361.407c-9.807 0-19.614-.005-29.421.055-8.262.051-16.52.145-24.779.368-17.994.485-36.147 1.543-53.944 4.735-18.053 3.236-34.857 8.52-51.259 16.849a172.4 172.4 0 0 0-43.667 31.644A172 172 0 0 0 26.573 97.61c-8.356 16.371-13.654 33.142-16.9 51.16-3.196 17.746-4.255 35.847-4.742 53.792-.222 8.238-.318 16.477-.368 24.717-.06 9.784-.563 21.937-.563 31.72l.003 110.09L4 454.998l.508 112.429c0 9.796-.004 19.592.055 29.388.05 8.252.146 16.502.369 24.751.486 17.976 1.547 36.109 4.746 53.886 3.245 18.032 8.542 34.817 16.89 51.201a172.2 172.2 0 0 0 31.723 43.619 172.4 172.4 0 0 0 43.659 31.684c16.412 8.346 33.224 13.639 51.288 16.88 17.789 3.193 35.936 4.252 53.923 4.737 8.259.223 16.518.318 24.78.368 9.807.06 19.613.056 29.42.056l112.645.003h85.211l112.427-.004c9.788 0 19.576.005 29.364-.055 8.245-.05 16.487-.145 24.73-.368 17.96-.486 36.078-1.546 53.841-4.741 18.018-3.241 34.789-8.532 51.16-16.873a172.202 172.202 0 0 0 75.239-75.299c8.338-16.392 13.626-33.185 16.866-51.229 3.19-17.77 4.248-35.896 4.733-53.865.223-8.25.318-16.5.367-24.751.061-9.796.056-19.592.056-29.388l-.006-112.429v-85.999z" clip-rule="evenodd"/></mask><mask id="l" maskUnits="userSpaceOnUse"><path fill="#fff" fill-rule="evenodd" d="M828 256.627c0-9.782.004-19.565-.056-29.348-.049-8.241-.144-16.48-.368-24.717-.484-17.953-1.543-36.06-4.736-53.813-3.238-18.008-8.526-34.769-16.859-51.132a172.079 172.079 0 0 0-75.235-75.199c-16.38-8.335-33.159-13.621-51.188-16.858-17.755-3.188-35.867-4.245-53.82-4.73-8.243-.223-16.485-.317-24.73-.368-9.788-.06-19.576-.055-29.364-.055L457.997 0h-85L261.361.407c-9.807 0-19.614-.005-29.421.055-8.262.051-16.52.145-24.779.368-17.994.485-36.147 1.543-53.944 4.735-18.053 3.236-34.857 8.52-51.259 16.849a172.4 172.4 0 0 0-43.667 31.644A172 172 0 0 0 26.573 97.61c-8.356 16.371-13.654 33.142-16.9 51.16-3.196 17.746-4.255 35.847-4.742 53.792-.222 8.238-.318 16.477-.368 24.717-.06 9.784-.563 21.937-.563 31.72l.003 110.09L4 454.998l.508 112.429c0 9.796-.004 19.592.055 29.388.05 8.252.146 16.502.369 24.751.486 17.976 1.547 36.109 4.746 53.886 3.245 18.032 8.542 34.817 16.89 51.201a172.2 172.2 0 0 0 31.723 43.619 172.4 172.4 0 0 0 43.659 31.684c16.412 8.346 33.224 13.639 51.288 16.88 17.789 3.193 35.936 4.252 53.923 4.737 8.259.223 16.518.318 24.78.368 9.807.06 19.613.056 29.42.056l112.645.003h85.211l112.427-.004c9.788 0 19.576.005 29.364-.055 8.245-.05 16.487-.145 24.73-.368 17.96-.486 36.078-1.546 53.841-4.741 18.018-3.241 34.789-8.532 51.16-16.873a172.202 172.202 0 0 0 75.239-75.299c8.338-16.392 13.626-33.185 16.866-51.229 3.19-17.77 4.248-35.896 4.733-53.865.223-8.25.318-16.5.367-24.751.061-9.796.056-19.592.056-29.388l-.006-112.429v-85.999z" clip-rule="evenodd"/></mask><mask id="i" maskUnits="userSpaceOnUse"><path fill="#fff" fill-rule="evenodd" d="M828 256.627c0-9.782.004-19.565-.056-29.348-.049-8.241-.144-16.48-.368-24.717-.484-17.953-1.543-36.06-4.736-53.813-3.238-18.008-8.526-34.769-16.859-51.132a172.079 172.079 0 0 0-75.235-75.199c-16.38-8.335-33.159-13.621-51.188-16.858-17.755-3.188-35.867-4.245-53.82-4.73-8.243-.223-16.485-.317-24.73-.368-9.788-.06-19.576-.055-29.364-.055L457.997 0h-85L261.361.407c-9.807 0-19.614-.005-29.421.055-8.262.051-16.52.145-24.779.368-17.994.485-36.147 1.543-53.944 4.735-18.053 3.236-34.857 8.52-51.259 16.849a172.4 172.4 0 0 0-43.667 31.644A172 172 0 0 0 26.573 97.61c-8.356 16.371-13.654 33.142-16.9 51.16-3.196 17.746-4.255 35.847-4.742 53.792-.222 8.238-.318 16.477-.368 24.717-.06 9.784-.563 21.937-.563 31.72l.003 110.09L4 454.998l.508 112.429c0 9.796-.004 19.592.055 29.388.05 8.252.146 16.502.369 24.751.486 17.976 1.547 36.109 4.746 53.886 3.245 18.032 8.542 34.817 16.89 51.201a172.2 172.2 0 0 0 31.723 43.619 172.4 172.4 0 0 0 43.659 31.684c16.412 8.346 33.224 13.639 51.288 16.88 17.789 3.193 35.936 4.252 53.923 4.737 8.259.223 16.518.318 24.78.368 9.807.06 19.613.056 29.42.056l112.645.003h85.211l112.427-.004c9.788 0 19.576.005 29.364-.055 8.245-.05 16.487-.145 24.73-.368 17.96-.486 36.078-1.546 53.841-4.741 18.018-3.241 34.789-8.532 51.16-16.873a172.202 172.202 0 0 0 75.239-75.299c8.338-16.392 13.626-33.185 16.866-51.229 3.19-17.77 4.248-35.896 4.733-53.865.223-8.25.318-16.5.367-24.751.061-9.796.056-19.592.056-29.388l-.006-112.429v-85.999z" clip-rule="evenodd"/></mask><mask id="e" maskUnits="userSpaceOnUse"><path fill="#fff" fill-rule="evenodd" d="M828 256.627c0-9.782.004-19.565-.056-29.348-.049-8.241-.144-16.48-.368-24.717-.484-17.953-1.543-36.06-4.736-53.813-3.238-18.008-8.526-34.769-16.859-51.132a172.079 172.079 0 0 0-75.235-75.199c-16.38-8.335-33.159-13.621-51.188-16.858-17.755-3.188-35.867-4.245-53.82-4.73-8.243-.223-16.485-.317-24.73-.368-9.788-.06-19.576-.055-29.364-.055L457.997 0h-85L261.361.407c-9.807 0-19.614-.005-29.421.055-8.262.051-16.52.145-24.779.368-17.994.485-36.147 1.543-53.944 4.735-18.053 3.236-34.857 8.52-51.259 16.849a172.4 172.4 0 0 0-43.667 31.644A172 172 0 0 0 26.573 97.61c-8.356 16.371-13.654 33.142-16.9 51.16-3.196 17.746-4.255 35.847-4.742 53.792-.222 8.238-.318 16.477-.368 24.717-.06 9.784-.563 21.937-.563 31.72l.003 110.09L4 454.998l.508 112.429c0 9.796-.004 19.592.055 29.388.05 8.252.146 16.502.369 24.751.486 17.976 1.547 36.109 4.746 53.886 3.245 18.032 8.542 34.817 16.89 51.201a172.2 172.2 0 0 0 31.723 43.619 172.4 172.4 0 0 0 43.659 31.684c16.412 8.346 33.224 13.639 51.288 16.88 17.789 3.193 35.936 4.252 53.923 4.737 8.259.223 16.518.318 24.78.368 9.807.06 19.613.056 29.42.056l112.645.003h85.211l112.427-.004c9.788 0 19.576.005 29.364-.055 8.245-.05 16.487-.145 24.73-.368 17.96-.486 36.078-1.546 53.841-4.741 18.018-3.241 34.789-8.532 51.16-16.873a172.202 172.202 0 0 0 75.239-75.299c8.338-16.392 13.626-33.185 16.866-51.229 3.19-17.77 4.248-35.896 4.733-53.865.223-8.25.318-16.5.367-24.751.061-9.796.056-19.592.056-29.388l-.006-112.429v-85.999z" clip-rule="evenodd"/></mask><mask id="b" maskUnits="userSpaceOnUse"><path fill="#fff" fill-rule="evenodd" d="M828 256.627c0-9.782.004-19.565-.056-29.348-.049-8.241-.144-16.48-.368-24.717-.484-17.953-1.543-36.06-4.736-53.813-3.238-18.008-8.526-34.769-16.859-51.132a172.079 172.079 0 0 0-75.235-75.199c-16.38-8.335-33.159-13.621-51.188-16.858-17.755-3.188-35.867-4.245-53.82-4.73-8.243-.223-16.485-.317-24.73-.368-9.788-.06-19.576-.055-29.364-.055L457.997 0h-85L261.361.407c-9.807 0-19.614-.005-29.421.055-8.262.051-16.52.145-24.779.368-17.994.485-36.147 1.543-53.944 4.735-18.053 3.236-34.857 8.52-51.259 16.849a172.4 172.4 0 0 0-43.667 31.644A172 172 0 0 0 26.573 97.61c-8.356 16.371-13.654 33.142-16.9 51.16-3.196 17.746-4.255 35.847-4.742 53.792-.222 8.238-.318 16.477-.368 24.717-.06 9.784-.563 21.937-.563 31.72l.003 110.09L4 454.998l.508 112.429c0 9.796-.004 19.592.055 29.388.05 8.252.146 16.502.369 24.751.486 17.976 1.547 36.109 4.746 53.886 3.245 18.032 8.542 34.817 16.89 51.201a172.2 172.2 0 0 0 31.723 43.619 172.4 172.4 0 0 0 43.659 31.684c16.412 8.346 33.224 13.639 51.288 16.88 17.789 3.193 35.936 4.252 53.923 4.737 8.259.223 16.518.318 24.78.368 9.807.06 19.613.056 29.42.056l112.645.003h85.211l112.427-.004c9.788 0 19.576.005 29.364-.055 8.245-.05 16.487-.145 24.73-.368 17.96-.486 36.078-1.546 53.841-4.741 18.018-3.241 34.789-8.532 51.16-16.873a172.202 172.202 0 0 0 75.239-75.299c8.338-16.392 13.626-33.185 16.866-51.229 3.19-17.77 4.248-35.896 4.733-53.865.223-8.25.318-16.5.367-24.751.061-9.796.056-19.592.056-29.388l-.006-112.429v-85.999z" clip-rule="evenodd"/></mask><radialGradient id="d" cx="0" cy="0" r="1" gradientTransform="matrix(0 -218.006 218.007 0 221.78 696.39)" gradientUnits="userSpaceOnUse"><stop stop-color="#8C9EF2"/><stop offset="1" stop-color="#555E8A"/></radialGradient><radialGradient id="n" cx="0" cy="0" r="1" gradientTransform="matrix(-276.77263 -380.24659 335.27357 -244.03781 605.884 695.368)" gradientUnits="userSpaceOnUse"><stop stop-color="#FF8074"/><stop offset="1" stop-color="#8E4445" stop-opacity="0"/></radialGradient></defs></svg>