<?xml version="1.0" encoding="UTF-8"?>
<svg id="_레이어_1" data-name="레이어_1" xmlns="http://www.w3.org/2000/svg" viewBox="0 0 81.39 81.39">
  <defs>
    <style>
      .cls-1 {
        fill: #0c0c0c;
      }
    </style>
  </defs>
  <path class="cls-1" d="M66.39,17.55c-.81-.9-1.66-1.75-2.56-2.56-2.12-1.91-4.16-3.92-6-6.1C53.14,3.33,47.18,0,40.69,0s-12.44,3.32-17.13,8.88c-1.85,2.18-3.88,4.2-6.01,6.11-.9.81-1.75,1.66-2.56,2.56-1.91,2.12-3.92,4.16-6.11,6.01C3.33,28.25,0,34.21,0,40.69s3.33,12.45,8.9,17.15c2.18,1.84,4.18,3.86,6.08,5.98.81.9,1.67,1.75,2.56,2.56,2.13,1.92,4.17,3.93,6.02,6.12,4.69,5.56,10.65,8.88,17.13,8.88s12.43-3.32,17.13-8.88c1.85-2.19,3.89-4.2,6.02-6.12.9-.81,1.75-1.66,2.56-2.56,1.91-2.12,3.92-4.15,6.1-5.99,5.57-4.7,8.9-10.66,8.9-17.15s-3.33-12.46-8.91-17.16c-2.18-1.84-4.18-3.87-6.09-5.98ZM63.49,63.41s-.01.04-.03.06c-.02.01-.04.02-.06.03-5.82,5.81-13.85,9.39-22.72,9.39s-16.9-3.59-22.71-9.39c-.02,0-.04-.01-.05-.02-.01-.01-.02-.03-.02-.05-5.81-5.82-9.4-13.85-9.4-22.72s3.59-16.9,9.4-22.72c0-.02.01-.04.02-.05.01,0,.03-.02.05-.02,5.82-5.8,13.85-9.39,22.71-9.39s16.9,3.59,22.72,9.39c.02,0,.04.01.06.03.01.02.02.04.03.06,5.8,5.82,9.39,13.85,9.39,22.71s-3.59,16.89-9.39,22.71Z"/>
  <path class="cls-1" d="M40.74,72.88c-10.36,0-18.85-3.03-25.46-9.1-6.61-6.07-9.92-13.77-9.92-23.1s3.32-17.09,9.96-23.28c6.64-6.18,15.11-9.28,25.42-9.28s18.7,3.09,25.34,9.28c6.64,6.18,9.96,13.94,9.96,23.28s-3.31,17.04-9.92,23.1c-6.61,6.07-15.07,9.1-25.38,9.1ZM20.4,59.56c5.14,4.89,11.92,7.33,20.34,7.33s15.18-2.44,20.29-7.33c5.11-4.88,7.67-11.2,7.67-18.96s-2.57-14.03-7.72-19.01c-5.15-4.98-11.89-7.47-20.25-7.47s-15.12,2.49-20.29,7.47c-5.18,4.98-7.76,11.32-7.76,19.01s2.57,14.07,7.72,18.96Z"/>
</svg>