<?xml version="1.0" encoding="UTF-8"?>
<svg id="_레이어_1" data-name="레이어_1" xmlns="http://www.w3.org/2000/svg" viewBox="0 0 81.39 81.39">
  <defs>
    <style>
      .cls-1 {
        fill: #0c0c0c;
      }
    </style>
  </defs>
  <path class="cls-1" d="M72.48,23.53c-2.17-1.84-4.18-3.87-6.08-5.98-.81-.9-1.66-1.75-2.56-2.56-2.12-1.91-4.16-3.92-6-6.1C53.14,3.32,47.18,0,40.7,0s-12.44,3.32-17.13,8.88c-1.85,2.19-3.89,4.2-6.01,6.11-.9.81-1.75,1.66-2.56,2.56-1.91,2.12-3.92,4.16-6.11,6C3.33,28.25,0,34.21,0,40.69s3.33,12.45,8.9,17.15c2.18,1.84,4.18,3.86,6.09,5.98.81.9,1.66,1.75,2.56,2.56,2.13,1.92,4.17,3.94,6.02,6.12,4.69,5.56,10.65,8.89,17.13,8.89s12.43-3.32,17.13-8.88c1.85-2.19,3.89-4.2,6.01-6.12.9-.81,1.75-1.66,2.56-2.56,1.91-2.12,3.92-4.15,6.1-5.99,5.57-4.7,8.9-10.66,8.9-17.15s-3.34-12.46-8.92-17.16ZM12.69,40.59c0-7.69,2.59-14.02,7.76-19,5.18-4.98,11.94-7.47,20.3-7.47s15.1,2.49,20.24,7.47c5.15,4.98,7.72,11.31,7.72,19s-2.56,14.08-7.67,18.96c-5.12,4.89-11.88,7.33-20.29,7.33s-15.2-2.44-20.34-7.33c-5.15-4.88-7.72-11.2-7.72-18.96Z"/>
</svg>